<svg width="14" height="10" viewBox="0 0 14 10" fill="none" xmlns="http://www.w3.org/2000/svg">
<path d="M7.00001 0.333313C10.5438 0.333313 13.4167 1.90015 13.4167 3.83331V6.16665C13.4167 8.09981 10.5438 9.66665 7.00001 9.66665C3.51926 9.66665 0.68601 8.15523 0.58626 6.2699L0.583344 6.16665V3.83331C0.583344 1.90015 3.45626 0.333313 7.00001 0.333313ZM7.00001 7.33331C4.83001 7.33331 2.91084 6.7459 1.75001 5.84581V6.16665C1.75001 7.26448 4.01509 8.49998 7.00001 8.49998C9.92251 8.49998 12.1555 7.31581 12.2471 6.23548L12.25 6.16665L12.2506 5.84581C11.0898 6.74531 9.17059 7.33331 7.00001 7.33331ZM7.00001 1.49998C4.01509 1.49998 1.75001 2.73548 1.75001 3.83331C1.75001 4.93115 4.01509 6.16665 7.00001 6.16665C9.98493 6.16665 12.25 4.93115 12.25 3.83331C12.25 2.73548 9.98493 1.49998 7.00001 1.49998Z" fill="#770FDF"/>
</svg>
