<svg width="19" height="19" viewBox="0 0 19 19" fill="none" xmlns="http://www.w3.org/2000/svg">
<path d="M18.5 17.7327C18.5 17.9979 18.3946 18.2523 18.2071 18.4398C18.0196 18.6273 17.7652 18.7327 17.5 18.7327H1.5C1.23478 18.7327 0.98043 18.6273 0.792893 18.4398C0.605357 18.2523 0.5 17.9979 0.5 17.7327V7.22269C0.499895 7.07031 0.534617 6.91991 0.601516 6.78299C0.668415 6.64608 0.76572 6.52626 0.886 6.43269L8.886 0.210694C9.06154 0.0741392 9.2776 0 9.5 0C9.7224 0 9.93846 0.0741392 10.114 0.210694L18.114 6.43269C18.2343 6.52626 18.3316 6.64608 18.3985 6.78299C18.4654 6.91991 18.5001 7.07031 18.5 7.22269V17.7327ZM8.5 10.7327V16.7327H10.5V10.7327H8.5Z"/>
</svg>
