<svg width="12" height="12" viewBox="0 0 12 12" fill="currentColor" xmlns="http://www.w3.org/2000/svg">
<path d="M5.99984 11.8337C2.77809 11.8337 0.166504 9.22208 0.166504 6.00033C0.166504 2.77858 2.77809 0.166992 5.99984 0.166992C9.22159 0.166992 11.8332 2.77858 11.8332 6.00033C11.8332 9.22208 9.22159 11.8337 5.99984 11.8337ZM5.99984 10.667C7.23751 10.667 8.4245 10.1753 9.29967 9.30016C10.1748 8.42499 10.6665 7.238 10.6665 6.00033C10.6665 4.76265 10.1748 3.57566 9.29967 2.70049C8.4245 1.82532 7.23751 1.33366 5.99984 1.33366C4.76216 1.33366 3.57518 1.82532 2.70001 2.70049C1.82484 3.57566 1.33317 4.76265 1.33317 6.00033C1.33317 7.238 1.82484 8.42499 2.70001 9.30016C3.57518 10.1753 4.76216 10.667 5.99984 10.667ZM5.4165 3.08366H6.58317V4.25033H5.4165V3.08366ZM5.4165 5.41699H6.58317V8.91699H5.4165V5.41699Z" />
</svg>
