<svg width="21" height="20" viewBox="0 0 21 20" fill="none" xmlns="http://www.w3.org/2000/svg">
<path d="M10.5 20C4.977 20 0.5 15.523 0.5 10C0.5 5.522 3.443 1.732 7.5 0.458V2.582C5.78092 3.28005 4.3578 4.55371 3.47406 6.18512C2.59032 7.81652 2.30088 9.70431 2.65525 11.5255C3.00963 13.3468 3.98579 14.9883 5.41676 16.1693C6.84774 17.3503 8.64461 17.9975 10.5 18C12.0938 18 13.6513 17.524 14.9728 16.6332C16.2944 15.7424 17.32 14.4773 17.918 13H20.042C18.768 17.057 14.978 20 10.5 20ZM20.45 11H9.5V0.05C9.829 0.017 10.163 0 10.5 0C16.023 0 20.5 4.477 20.5 10C20.5 10.337 20.483 10.671 20.45 11ZM11.5 2.062V9H18.438C18.2154 7.23761 17.4129 5.59934 16.1568 4.34324C14.9007 3.08713 13.2624 2.28459 11.5 2.062Z" />
</svg>
